<svg width="1476" height="677" viewBox="0 0 1476 677" fill="none" xmlns="http://www.w3.org/2000/svg">
<path d="M118.05 386.108H122.956V387.978H118.05V386.108ZM121.702 380.74H124.012V395.436H121.702V380.74ZM110.988 398.56H124.518V400.43H110.988V398.56ZM110.988 394.16H113.276V399.594H110.988V394.16ZM112.264 383.292H114.134V384.744C114.134 388.462 112.088 391.762 108.502 393.038L107.336 391.19C110.46 390.112 112.264 387.472 112.264 384.744V383.292ZM112.726 383.292H114.574V384.744C114.574 387.23 116.29 389.738 119.304 390.794L118.16 392.598C114.684 391.388 112.726 388.22 112.726 384.744V383.292ZM107.996 382.236H118.776V384.084H107.996V382.236ZM141.874 380.718H144.184V400.826H141.874V380.718ZM135.978 382.852H138.244C138.244 388.814 135.868 393.874 128.96 397.24L127.75 395.392C133.536 392.598 135.978 388.616 135.978 383.248V382.852ZM128.74 382.852H137.012V384.7H128.74V382.852ZM147.812 391.256H165.984V393.082H147.812V391.256ZM155.754 388.968H158.042V392.026H155.754V388.968ZM149.836 394.732H163.762V400.826H161.474V396.58H149.836V394.732ZM155.754 380.674H158.042V383.534H155.754V380.674ZM155.622 383.842H157.646V384.194C157.646 387.384 154.324 389.43 149.462 389.87L148.758 388.11C153.07 387.78 155.622 386.174 155.622 384.194V383.842ZM156.15 383.842H158.174V384.194C158.174 386.174 160.726 387.78 165.038 388.11L164.334 389.87C159.45 389.43 156.15 387.384 156.15 384.194V383.842ZM149.616 382.632H164.18V384.436H149.616V382.632ZM183.033 380.718H185.233V400.826H183.033V380.718ZM180.173 388.55H183.803V390.42H180.173V388.55ZM178.589 381.092H180.767V399.858H178.589V381.092ZM168.711 382.918H176.499V395.59H168.711V382.918ZM174.343 384.744H170.867V393.786H174.343V384.744ZM192.504 402.96L198.62 381.422H200.358L194.264 402.96H192.504ZM207.866 399V382.808H217.48V384.964H210.44V389.892H216.424V392.048H210.44V399H207.866ZM220.327 399V382.808H224.551C229.523 382.808 232.339 385.558 232.339 390.838C232.339 396.118 229.523 399 224.683 399H220.327ZM222.901 396.91H224.353C227.829 396.91 229.721 394.864 229.721 390.838C229.721 386.812 227.829 384.876 224.353 384.876H222.901V396.91ZM233.254 399L238.6 382.808H241.57L246.916 399H244.21L241.614 390.222C241.064 388.462 240.58 386.636 240.074 384.832H239.986C239.502 386.658 239.018 388.462 238.468 390.222L235.85 399H233.254ZM236.268 394.402V392.4H243.836V394.402H236.268ZM256.971 385.03H262.779V386.9H256.971V385.03ZM256.971 391.344H262.779V393.214H256.971V391.344ZM253.363 382.192C256.333 382.192 258.445 384.942 258.445 389.276C258.445 393.61 256.333 396.382 253.363 396.382C250.393 396.382 248.281 393.61 248.281 389.276C248.281 384.942 250.393 382.192 253.363 382.192ZM253.363 384.282C251.647 384.282 250.459 386.152 250.459 389.276C250.459 392.422 251.647 394.314 253.363 394.314C255.101 394.314 256.267 392.422 256.267 389.276C256.267 386.152 255.101 384.282 253.363 384.282ZM262.339 380.696H264.627V400.848H262.339V380.696ZM269.048 382.83H277.958V384.678H269.048V382.83ZM271.952 388.572H274.218V395.392H271.952V388.572ZM277.012 382.83H279.3V384.15C279.3 385.932 279.3 388.462 278.728 392.026L276.462 391.828C277.012 388.374 277.012 385.91 277.012 384.15V382.83ZM281.456 380.718H283.744V400.826H281.456V380.718ZM283.106 388.968H286.736V390.904H283.106V388.968ZM268.234 396.58L267.992 394.688C271.578 394.688 276.352 394.622 280.378 394.116L280.488 395.81C276.374 396.492 271.754 396.58 268.234 396.58ZM302.706 380.718H305.016V400.826H302.706V380.718ZM296.81 382.852H299.076C299.076 388.814 296.7 393.874 289.792 397.24L288.582 395.392C294.368 392.598 296.81 388.616 296.81 383.248V382.852ZM289.572 382.852H297.844V384.7H289.572V382.852Z" fill="black"/>
<path d="M147.17 431.98C145.29 428.96 144.19 425.72 144.19 421.76C144.19 417.8 145.29 414.56 147.17 411.52L148.59 412.16C146.89 415.04 146.09 418.42 146.09 421.76C146.09 425.1 146.89 428.48 148.59 431.36L147.17 431.98ZM150.459 422.06H167.019V423.74H150.459V422.06ZM157.639 422.88H159.719V429.66H157.639V422.88ZM152.459 412.1H154.539V414.42H162.899V412.1H164.979V420.08H152.459V412.1ZM154.539 416.08V418.4H162.899V416.08H154.539ZM172.877 422.8H175.017V429.66H172.877V422.8ZM179.177 422.8H181.317V429.66H179.177V422.8ZM168.857 421.68H185.417V423.38H168.857V421.68ZM177.097 412.06C180.957 412.06 183.577 413.62 183.577 416.1C183.577 418.54 180.957 420.12 177.097 420.12C173.257 420.12 170.617 418.54 170.617 416.1C170.617 413.62 173.257 412.06 177.097 412.06ZM177.097 413.74C174.477 413.74 172.757 414.62 172.757 416.1C172.757 417.56 174.477 418.44 177.097 418.44C179.717 418.44 181.437 417.56 181.437 416.1C181.437 414.62 179.717 413.74 177.097 413.74ZM194.455 420.08H196.535V422.78H194.455V420.08ZM187.255 418.88H203.775V420.54H187.255V418.88ZM189.355 411.96H201.655V417.6H189.355V411.96ZM199.595 413.6H191.415V415.96H199.595V413.6ZM189.215 422.04H201.715V426.42H191.315V428.36H189.235V424.92H199.655V423.62H189.215V422.04ZM189.235 427.88H202.235V429.5H189.235V427.88ZM218.634 411.38H220.734V420.8H218.634V411.38ZM208.754 421.62H220.734V426.24H210.834V428.54H208.794V424.74H218.654V423.24H208.754V421.62ZM208.794 427.86H221.274V429.5H208.794V427.86ZM210.334 413.06H212.054V413.9C212.054 417.12 210.114 419.9 206.814 420.92L205.834 419.28C208.714 418.4 210.334 416.2 210.334 413.9V413.06ZM210.774 413.06H212.474V413.9C212.474 416.06 214.114 418.1 216.954 418.92L215.974 420.54C212.694 419.58 210.774 416.96 210.774 413.9V413.06ZM206.394 412.32H216.374V414H206.394V412.32ZM242.145 411.38H244.145V429.66H242.145V411.38ZM235.765 417.8H239.065V419.52H235.765V417.8ZM238.465 411.74H240.425V428.76H238.465V411.74ZM232.065 414.28H233.665V416.4C233.665 420.44 232.305 424.36 229.525 426.12L228.265 424.56C230.865 422.96 232.065 419.66 232.065 416.4V414.28ZM232.525 414.28H234.105V416.4C234.105 419.52 235.265 422.64 237.825 424.14L236.585 425.68C233.805 424.02 232.525 420.32 232.525 416.4V414.28ZM228.845 413.38H237.105V415.08H228.845V413.38ZM260.003 411.38H262.083V429.66H260.003V411.38ZM256.063 418.56H260.983V420.28H256.063V418.56ZM254.083 413.32H256.143C256.143 418.68 254.163 423.24 247.983 426.34L246.863 424.7C252.103 422.1 254.083 418.48 254.083 413.68V413.32ZM247.683 413.32H255.183V415H247.683V413.32ZM266.801 431.98L265.361 431.36C267.061 428.48 267.881 425.1 267.881 421.76C267.881 418.42 267.061 415.04 265.361 412.16L266.801 411.52C268.661 414.56 269.761 417.8 269.761 421.76C269.761 425.72 268.661 428.96 266.801 431.98Z" fill="#878787"/>
<rect x="203" y="504" width="4" height="65" fill="#051923"/>
<rect x="200" y="569" width="10" height="10" fill="#051923"/>
<path d="M156.26 602.725C155.6 602.725 155.105 602.2 155.105 601.51C155.105 600.79 155.6 600.28 156.26 600.28C156.89 600.28 157.415 600.79 157.415 601.51C157.415 602.2 156.89 602.725 156.26 602.725ZM170.363 594.535H171.923V608.245H170.363V594.535ZM171.563 600.04H174.053V601.345H171.563V600.04ZM161.228 596.65H169.268V597.91H161.228V596.65ZM165.293 598.9C167.243 598.9 168.683 600.22 168.683 602.095C168.683 603.985 167.243 605.305 165.293 605.305C163.328 605.305 161.888 603.985 161.888 602.095C161.888 600.22 163.328 598.9 165.293 598.9ZM165.293 600.19C164.183 600.19 163.388 600.94 163.388 602.095C163.388 603.25 164.183 604.015 165.293 604.015C166.388 604.015 167.183 603.25 167.183 602.095C167.183 600.94 166.388 600.19 165.293 600.19ZM164.483 594.73H166.058V597.175H164.483V594.73ZM178.357 597.16H179.647V597.775C179.647 600.265 178.267 602.38 175.837 603.19L175.072 601.96C177.187 601.27 178.357 599.59 178.357 597.775V597.16ZM178.642 597.16H179.932V597.775C179.932 599.47 181.132 601.06 183.247 601.72L182.482 602.95C180.067 602.2 178.642 600.16 178.642 597.775V597.16ZM175.477 596.275H182.812V597.52H175.477V596.275ZM178.357 594.625H179.932V596.74H178.357V594.625ZM182.362 598.645H185.692V599.935H182.362V598.645ZM184.882 594.55H186.457V604.735H184.882V594.55ZM177.577 606.7H186.802V607.975H177.577V606.7ZM177.577 603.85H179.137V607.465H177.577V603.85ZM191.901 603.1H193.506V608.245H191.901V603.1ZM196.626 603.1H198.231V608.245H196.626V603.1ZM188.886 602.26H201.306V603.535H188.886V602.26ZM195.066 595.045C197.961 595.045 199.926 596.215 199.926 598.075C199.926 599.905 197.961 601.09 195.066 601.09C192.186 601.09 190.206 599.905 190.206 598.075C190.206 596.215 192.186 595.045 195.066 595.045ZM195.066 596.305C193.101 596.305 191.811 596.965 191.811 598.075C191.811 599.17 193.101 599.83 195.066 599.83C197.031 599.83 198.321 599.17 198.321 598.075C198.321 596.965 197.031 596.305 195.066 596.305ZM206.18 596.59H207.44V598.51C207.44 601.525 205.895 604.51 203.54 605.635L202.64 604.39C204.755 603.415 206.18 600.85 206.18 598.51V596.59ZM206.51 596.59H207.755V598.51C207.755 600.775 209.165 603.145 211.31 604.045L210.44 605.29C208.055 604.225 206.51 601.45 206.51 598.51V596.59ZM203.135 595.9H210.8V597.205H203.135V595.9ZM212.405 594.535H213.98V608.245H212.405V594.535ZM219.424 599.155H220.984V601.705H219.424V599.155ZM224.359 599.155H225.919V601.705H224.359V599.155ZM216.484 601.195H228.874V602.44H216.484V601.195ZM222.664 603.325C225.604 603.325 227.389 604.21 227.389 605.77C227.389 607.345 225.604 608.23 222.664 608.23C219.709 608.23 217.939 607.345 217.939 605.77C217.939 604.21 219.709 603.325 222.664 603.325ZM222.664 604.525C220.654 604.525 219.529 604.96 219.529 605.77C219.529 606.595 220.654 607.03 222.664 607.03C224.674 607.03 225.799 606.595 225.799 605.77C225.799 604.96 224.674 604.525 222.664 604.525ZM222.679 594.76C225.679 594.76 227.569 595.735 227.569 597.355C227.569 598.975 225.679 599.92 222.679 599.92C219.679 599.92 217.804 598.975 217.804 597.355C217.804 595.735 219.679 594.76 222.679 594.76ZM222.679 595.975C220.639 595.975 219.424 596.455 219.424 597.355C219.424 598.24 220.639 598.72 222.679 598.72C224.734 598.72 225.949 598.24 225.949 597.355C225.949 596.455 224.734 595.975 222.679 595.975ZM235.667 594.985H237.047V595.69C237.047 598.315 234.632 600.355 231.467 600.865L230.852 599.59C233.627 599.2 235.667 597.49 235.667 595.69V594.985ZM235.952 594.985H237.317V595.69C237.317 597.46 239.372 599.2 242.147 599.59L241.532 600.865C238.367 600.355 235.952 598.3 235.952 595.69V594.985ZM235.667 603.115H237.227V608.245H235.667V603.115ZM230.297 602.125H242.687V603.415H230.297V602.125ZM156.26 624.725C155.6 624.725 155.105 624.2 155.105 623.51C155.105 622.79 155.6 622.28 156.26 622.28C156.89 622.28 157.415 622.79 157.415 623.51C157.415 624.2 156.89 624.725 156.26 624.725ZM162.803 624.755H164.363V626.15H170.528V624.755H172.088V630.08H162.803V624.755ZM164.363 627.335V628.835H170.528V627.335H164.363ZM161.288 622.67H173.678V623.915H161.288V622.67ZM166.688 616.685H168.038V617.21C168.038 619.595 165.653 621.425 162.518 621.86L161.948 620.63C164.693 620.285 166.688 618.785 166.688 617.21V616.685ZM166.943 616.685H168.293V617.21C168.293 618.77 170.303 620.285 173.018 620.63L172.448 621.86C169.328 621.425 166.943 619.565 166.943 617.21V616.685ZM178.582 618.59H179.842V620.51C179.842 623.525 178.297 626.51 175.942 627.635L175.042 626.39C177.157 625.415 178.582 622.85 178.582 620.51V618.59ZM178.912 618.59H180.157V620.51C180.157 622.775 181.567 625.145 183.712 626.045L182.842 627.29C180.457 626.225 178.912 623.45 178.912 620.51V618.59ZM175.537 617.9H183.202V619.205H175.537V617.9ZM184.807 616.535H186.382V630.245H184.807V616.535ZM191.826 621.155H193.386V623.705H191.826V621.155ZM196.761 621.155H198.321V623.705H196.761V621.155ZM188.886 623.195H201.276V624.44H188.886V623.195ZM195.066 625.325C198.006 625.325 199.791 626.21 199.791 627.77C199.791 629.345 198.006 630.23 195.066 630.23C192.111 630.23 190.341 629.345 190.341 627.77C190.341 626.21 192.111 625.325 195.066 625.325ZM195.066 626.525C193.056 626.525 191.931 626.96 191.931 627.77C191.931 628.595 193.056 629.03 195.066 629.03C197.076 629.03 198.201 628.595 198.201 627.77C198.201 626.96 197.076 626.525 195.066 626.525ZM195.081 616.76C198.081 616.76 199.971 617.735 199.971 619.355C199.971 620.975 198.081 621.92 195.081 621.92C192.081 621.92 190.206 620.975 190.206 619.355C190.206 617.735 192.081 616.76 195.081 616.76ZM195.081 617.975C193.041 617.975 191.826 618.455 191.826 619.355C191.826 620.24 193.041 620.72 195.081 620.72C197.136 620.72 198.351 620.24 198.351 619.355C198.351 618.455 197.136 617.975 195.081 617.975ZM208.07 616.985H209.45V617.69C209.45 620.315 207.035 622.355 203.87 622.865L203.255 621.59C206.03 621.2 208.07 619.49 208.07 617.69V616.985ZM208.355 616.985H209.72V617.69C209.72 619.46 211.775 621.2 214.55 621.59L213.935 622.865C210.77 622.355 208.355 620.3 208.355 617.69V616.985ZM208.07 625.115H209.63V630.245H208.07V625.115ZM202.7 624.125H215.09V625.415H202.7V624.125ZM156.26 646.725C155.6 646.725 155.105 646.2 155.105 645.51C155.105 644.79 155.6 644.28 156.26 644.28C156.89 644.28 157.415 644.79 157.415 645.51C157.415 646.2 156.89 646.725 156.26 646.725ZM171.023 638.55H172.598V648.63H171.023V638.55ZM163.643 650.7H172.988V651.975H163.643V650.7ZM163.643 647.715H165.218V651.405H163.643V647.715ZM164.843 641.19H166.133V641.73C166.133 644.19 164.708 646.29 162.263 647.07L161.513 645.84C163.628 645.18 164.843 643.5 164.843 641.73V641.19ZM165.128 641.19H166.403V641.73C166.403 643.395 167.648 644.97 169.778 645.6L169.043 646.83C166.568 646.095 165.128 644.085 165.128 641.73V641.19ZM161.888 640.26H169.358V641.505H161.888V640.26ZM164.843 638.61H166.418V640.815H164.843V638.61ZM180.472 638.985H181.852V639.69C181.852 642.315 179.437 644.355 176.272 644.865L175.657 643.59C178.432 643.2 180.472 641.49 180.472 639.69V638.985ZM180.757 638.985H182.122V639.69C182.122 641.46 184.177 643.2 186.952 643.59L186.337 644.865C183.172 644.355 180.757 642.3 180.757 639.69V638.985ZM180.472 647.115H182.032V652.245H180.472V647.115ZM175.102 646.125H187.492V647.415H175.102V646.125ZM191.826 643.155H193.386V645.705H191.826V643.155ZM196.761 643.155H198.321V645.705H196.761V643.155ZM188.886 645.195H201.276V646.44H188.886V645.195ZM195.066 647.325C198.006 647.325 199.791 648.21 199.791 649.77C199.791 651.345 198.006 652.23 195.066 652.23C192.111 652.23 190.341 651.345 190.341 649.77C190.341 648.21 192.111 647.325 195.066 647.325ZM195.066 648.525C193.056 648.525 191.931 648.96 191.931 649.77C191.931 650.595 193.056 651.03 195.066 651.03C197.076 651.03 198.201 650.595 198.201 649.77C198.201 648.96 197.076 648.525 195.066 648.525ZM195.081 638.76C198.081 638.76 199.971 639.735 199.971 641.355C199.971 642.975 198.081 643.92 195.081 643.92C192.081 643.92 190.206 642.975 190.206 641.355C190.206 639.735 192.081 638.76 195.081 638.76ZM195.081 639.975C193.041 639.975 191.826 640.455 191.826 641.355C191.826 642.24 193.041 642.72 195.081 642.72C197.136 642.72 198.351 642.24 198.351 641.355C198.351 640.455 197.136 639.975 195.081 639.975ZM208.07 638.985H209.45V639.69C209.45 642.315 207.035 644.355 203.87 644.865L203.255 643.59C206.03 643.2 208.07 641.49 208.07 639.69V638.985ZM208.355 638.985H209.72V639.69C209.72 641.46 211.775 643.2 214.55 643.59L213.935 644.865C210.77 644.355 208.355 642.3 208.355 639.69V638.985ZM208.07 647.115H209.63V652.245H208.07V647.115ZM202.7 646.125H215.09V647.415H202.7V646.125ZM156.26 668.725C155.6 668.725 155.105 668.2 155.105 667.51C155.105 666.79 155.6 666.28 156.26 666.28C156.89 666.28 157.415 666.79 157.415 667.51C157.415 668.2 156.89 668.725 156.26 668.725ZM162.923 664.165H172.298V665.425H162.923V664.165ZM162.923 660.79H164.483V664.735H162.923V660.79ZM161.303 667.045H173.693V668.305H161.303V667.045ZM166.718 664.87H168.278V667.6H166.718V664.87ZM167.468 669.205C170.408 669.205 172.193 670.12 172.193 671.725C172.193 673.315 170.408 674.23 167.468 674.23C164.528 674.23 162.743 673.315 162.743 671.725C162.743 670.12 164.528 669.205 167.468 669.205ZM167.468 670.42C165.458 670.42 164.333 670.87 164.333 671.725C164.333 672.55 165.458 673.015 167.468 673.015C169.478 673.015 170.603 672.55 170.603 671.725C170.603 670.87 169.478 670.42 167.468 670.42ZM182.002 663.7H185.572V664.975H182.002V663.7ZM178.852 661.135C180.907 661.135 182.422 662.47 182.422 664.36C182.422 666.25 180.907 667.57 178.852 667.57C176.797 667.57 175.282 666.25 175.282 664.36C175.282 662.47 176.797 661.135 178.852 661.135ZM178.852 662.455C177.652 662.455 176.782 663.205 176.782 664.36C176.782 665.5 177.652 666.265 178.852 666.265C180.052 666.265 180.907 665.5 180.907 664.36C180.907 663.205 180.052 662.455 178.852 662.455ZM184.882 660.535H186.457V667.9H184.882V660.535ZM177.532 668.545H179.092V670.075H184.897V668.545H186.457V674.08H177.532V668.545ZM179.092 671.305V672.82H184.897V671.305H179.092ZM191.826 665.155H193.386V667.705H191.826V665.155ZM196.761 665.155H198.321V667.705H196.761V665.155ZM188.886 667.195H201.276V668.44H188.886V667.195ZM195.066 669.325C198.006 669.325 199.791 670.21 199.791 671.77C199.791 673.345 198.006 674.23 195.066 674.23C192.111 674.23 190.341 673.345 190.341 671.77C190.341 670.21 192.111 669.325 195.066 669.325ZM195.066 670.525C193.056 670.525 191.931 670.96 191.931 671.77C191.931 672.595 193.056 673.03 195.066 673.03C197.076 673.03 198.201 672.595 198.201 671.77C198.201 670.96 197.076 670.525 195.066 670.525ZM195.081 660.76C198.081 660.76 199.971 661.735 199.971 663.355C199.971 664.975 198.081 665.92 195.081 665.92C192.081 665.92 190.206 664.975 190.206 663.355C190.206 661.735 192.081 660.76 195.081 660.76ZM195.081 661.975C193.041 661.975 191.826 662.455 191.826 663.355C191.826 664.24 193.041 664.72 195.081 664.72C197.136 664.72 198.351 664.24 198.351 663.355C198.351 662.455 197.136 661.975 195.081 661.975ZM208.07 660.985H209.45V661.69C209.45 664.315 207.035 666.355 203.87 666.865L203.255 665.59C206.03 665.2 208.07 663.49 208.07 661.69V660.985ZM208.355 660.985H209.72V661.69C209.72 663.46 211.775 665.2 214.55 665.59L213.935 666.865C210.77 666.355 208.355 664.3 208.355 661.69V660.985ZM208.07 669.115H209.63V674.245H208.07V669.115ZM202.7 668.125H215.09V669.415H202.7V668.125ZM219.364 675.985C217.954 673.72 217.129 671.29 217.129 668.32C217.129 665.35 217.954 662.92 219.364 660.64L220.429 661.12C219.154 663.28 218.554 665.815 218.554 668.32C218.554 670.825 219.154 673.36 220.429 675.52L219.364 675.985ZM230.95 660.535H232.54V670.465H230.95V660.535ZM232.075 664.54H234.475V665.845H232.075V664.54ZM227.185 661.585H228.85C228.85 665.2 226.465 667.795 222.46 669.01L221.8 667.75C225.205 666.745 227.185 664.75 227.185 662.32V661.585ZM222.37 661.585H228.01V662.86H222.37V661.585ZM223.855 672.7H233.08V673.975H223.855V672.7ZM223.855 669.46H225.43V673.24H223.855V669.46ZM242.994 663.745H245.844V665.02H242.994V663.745ZM245.424 660.535H246.984V668.005H245.424V660.535ZM238.074 668.62H239.634V670.105H245.439V668.62H246.984V674.08H238.074V668.62ZM239.634 671.335V672.805H245.439V671.335H239.634ZM238.989 661.6H240.264V662.62C240.264 665.14 238.869 667.39 236.424 668.245L235.629 667C237.759 666.265 238.989 664.465 238.989 662.62V661.6ZM239.304 661.6H240.564V662.605C240.564 664.3 241.734 666.01 243.789 666.715L243.009 667.945C240.639 667.12 239.304 664.975 239.304 662.605V661.6ZM236.079 661.27H243.429V662.53H236.079V661.27ZM250.523 675.985L249.443 675.52C250.718 673.36 251.333 670.825 251.333 668.32C251.333 665.815 250.718 663.28 249.443 661.12L250.523 660.64C251.918 662.92 252.743 665.35 252.743 668.32C252.743 671.29 251.918 673.72 250.523 675.985ZM254.79 666.94H267.18V668.23H254.79V666.94ZM256.32 664.54H265.755V665.8H256.32V664.54ZM256.32 661H265.665V662.275H257.88V665.155H256.32V661ZM260.955 669.25C263.895 669.25 265.68 670.15 265.68 671.74C265.68 673.33 263.895 674.23 260.955 674.23C258.015 674.23 256.23 673.33 256.23 671.74C256.23 670.15 258.015 669.25 260.955 669.25ZM260.955 670.45C258.945 670.45 257.82 670.9 257.82 671.74C257.82 672.58 258.945 673.015 260.955 673.015C262.965 673.015 264.09 672.58 264.09 671.74C264.09 670.9 262.965 670.45 260.955 670.45Z" fill="#606060"/>
<path d="M878.804 399V381.336H884.588C888.236 381.336 890.972 382.632 890.972 386.472C890.972 390.168 888.236 391.872 884.588 391.872H881.612V399H878.804ZM881.612 389.64H884.276C886.82 389.64 888.212 388.584 888.212 386.472C888.212 384.336 886.82 383.592 884.276 383.592H881.612V389.64ZM888.476 399L884.06 391.152L886.124 389.52L891.596 399H888.476ZM901.298 399.336C896.738 399.336 893.594 395.808 893.594 390.096C893.594 384.408 896.738 381.024 901.298 381.024C905.834 381.024 908.978 384.408 908.978 390.096C908.978 395.808 905.834 399.336 901.298 399.336ZM901.298 396.888C904.226 396.888 906.122 394.224 906.122 390.096C906.122 385.968 904.226 383.448 901.298 383.448C898.346 383.448 896.474 385.968 896.474 390.096C896.474 394.224 898.346 396.888 901.298 396.888ZM921.24 392.808C925.944 392.808 928.944 394.344 928.944 396.912C928.944 399.432 925.944 400.968 921.24 400.968C916.56 400.968 913.56 399.432 913.56 396.912C913.56 394.344 916.56 392.808 921.24 392.808ZM921.24 394.728C918.024 394.728 916.056 395.52 916.056 396.912C916.056 398.256 918.024 399.048 921.24 399.048C924.48 399.048 926.448 398.256 926.448 396.912C926.448 395.52 924.48 394.728 921.24 394.728ZM913.752 380.112H927.768V382.104H913.752V380.112ZM911.472 389.088H931.224V391.08H911.472V389.088ZM919.224 385.032H921.72V389.616H919.224V385.032ZM926.304 380.112H928.8V381.936C928.8 383.688 928.8 385.512 928.2 387.768L925.704 387.504C926.304 385.248 926.304 383.64 926.304 381.936V380.112ZM945.31 384.576H949.894V386.64H945.31V384.576ZM949.174 379.056H951.694V392.112H949.174V379.056ZM944.374 392.688C948.958 392.688 951.766 394.248 951.766 396.84C951.766 399.48 948.958 400.992 944.374 400.992C939.79 400.992 936.982 399.48 936.982 396.84C936.982 394.248 939.79 392.688 944.374 392.688ZM944.374 394.632C941.278 394.632 939.478 395.4 939.478 396.84C939.478 398.28 941.278 399.048 944.374 399.048C947.494 399.048 949.27 398.28 949.27 396.84C949.27 395.4 947.494 394.632 944.374 394.632ZM938.878 381.264H940.918V382.872C940.918 386.976 938.686 390.6 934.798 391.992L933.502 390C936.934 388.8 938.878 385.872 938.878 382.872V381.264ZM939.382 381.264H941.398V382.848C941.398 385.584 943.27 388.296 946.558 389.424L945.31 391.416C941.518 390.096 939.382 386.64 939.382 382.848V381.264ZM934.222 380.544H945.982V382.56H934.222V380.544Z" fill="black"/>
<path d="M815.894 431.98C814.014 428.96 812.914 425.72 812.914 421.76C812.914 417.8 814.014 414.56 815.894 411.52L817.314 412.16C815.614 415.04 814.814 418.42 814.814 421.76C814.814 425.1 815.614 428.48 817.314 431.36L815.894 431.98ZM831.263 411.38H833.363V429.66H831.263V411.38ZM832.883 418.4H836.203V420.16H832.883V418.4ZM819.843 412.88H821.923V417.54H826.443V412.88H828.523V425.34H819.843V412.88ZM821.923 419.18V423.64H826.443V419.18H821.923ZM850.542 411.36H852.642V429.68H850.542V411.36ZM842.902 412.72C845.642 412.72 847.622 415.22 847.622 419.16C847.622 423.1 845.642 425.62 842.902 425.62C840.182 425.62 838.202 423.1 838.202 419.16C838.202 415.22 840.182 412.72 842.902 412.72ZM842.902 414.62C841.302 414.62 840.202 416.32 840.202 419.16C840.202 422.02 841.302 423.74 842.902 423.74C844.502 423.74 845.602 422.02 845.602 419.16C845.602 416.32 844.502 414.62 842.902 414.62ZM869.04 411.36H871.12V429.68H869.04V411.36ZM865.84 418.2H869.5V419.9H865.84V418.2ZM856.64 423.64H858.08C861.2 423.64 863.52 423.56 866.18 423.08L866.38 424.8C863.64 425.26 861.26 425.38 858.08 425.38H856.64V423.64ZM856.6 413H864.8V419.62H858.72V424.16H856.64V417.94H862.74V414.7H856.6V413ZM881.479 412.54H883.299V413.92C883.299 417.88 879.979 421.16 875.859 422.04L874.939 420.3C878.559 419.64 881.479 416.8 881.479 413.92V412.54ZM881.879 412.54H883.699V413.92C883.699 416.84 886.619 419.64 890.239 420.3L889.319 422.04C885.199 421.16 881.879 417.92 881.879 413.92V412.54ZM874.399 425.58H890.959V427.3H874.399V425.58ZM893.437 432.02L892.937 430.72C894.317 430.14 895.117 429.12 895.117 427.92L894.957 426.08L895.917 427.58C895.637 427.88 895.277 428 894.897 428C894.077 428 893.337 427.46 893.337 426.52C893.337 425.6 894.077 425.04 894.957 425.04C896.077 425.04 896.737 425.96 896.737 427.5C896.737 429.62 895.517 431.24 893.437 432.02ZM911.694 411.36H913.794V429.68H911.694V411.36ZM904.054 412.72C906.794 412.72 908.774 415.22 908.774 419.16C908.774 423.1 906.794 425.62 904.054 425.62C901.334 425.62 899.354 423.1 899.354 419.16C899.354 415.22 901.334 412.72 904.054 412.72ZM904.054 414.62C902.454 414.62 901.354 416.32 901.354 419.16C901.354 422.02 902.454 423.74 904.054 423.74C905.654 423.74 906.754 422.02 906.754 419.16C906.754 416.32 905.654 414.62 904.054 414.62ZM917.132 420.96H933.652V422.64H917.132V420.96ZM924.352 418.32H926.432V421.76H924.352V418.32ZM919.212 427.6H931.812V429.3H919.212V427.6ZM919.212 424H921.312V428.16H919.212V424ZM925.392 411.88C929.332 411.88 931.912 413.3 931.912 415.58C931.912 417.9 929.332 419.28 925.392 419.28C921.452 419.28 918.892 417.9 918.892 415.58C918.892 413.3 921.452 411.88 925.392 411.88ZM925.392 413.56C922.712 413.56 921.052 414.3 921.052 415.58C921.052 416.88 922.712 417.6 925.392 417.6C928.092 417.6 929.752 416.88 929.752 415.58C929.752 414.3 928.092 413.56 925.392 413.56ZM942.731 420.08H944.811V422.78H942.731V420.08ZM935.531 418.88H952.051V420.54H935.531V418.88ZM937.631 411.96H949.931V417.6H937.631V411.96ZM947.871 413.6H939.691V415.96H947.871V413.6ZM937.491 422.04H949.991V426.42H939.591V428.36H937.511V424.92H947.931V423.62H937.491V422.04ZM937.511 427.88H950.511V429.5H937.511V427.88ZM966.909 411.38H969.009V420.8H966.909V411.38ZM957.029 421.62H969.009V426.24H959.109V428.54H957.069V424.74H966.929V423.24H957.029V421.62ZM957.069 427.86H969.549V429.5H957.069V427.86ZM958.609 413.06H960.329V413.9C960.329 417.12 958.389 419.9 955.089 420.92L954.109 419.28C956.989 418.4 958.609 416.2 958.609 413.9V413.06ZM959.049 413.06H960.749V413.9C960.749 416.06 962.389 418.1 965.229 418.92L964.249 420.54C960.969 419.58 959.049 416.96 959.049 413.9V413.06ZM954.669 412.32H964.649V414H954.669V412.32ZM990.42 411.38H992.42V429.66H990.42V411.38ZM984.04 417.8H987.34V419.52H984.04V417.8ZM986.74 411.74H988.7V428.76H986.74V411.74ZM980.34 414.28H981.94V416.4C981.94 420.44 980.58 424.36 977.8 426.12L976.54 424.56C979.14 422.96 980.34 419.66 980.34 416.4V414.28ZM980.8 414.28H982.38V416.4C982.38 419.52 983.54 422.64 986.1 424.14L984.86 425.68C982.08 424.02 980.8 420.32 980.8 416.4V414.28ZM977.12 413.38H985.38V415.08H977.12V413.38ZM1008.28 411.38H1010.36V429.66H1008.28V411.38ZM1004.34 418.56H1009.26V420.28H1004.34V418.56ZM1002.36 413.32H1004.42C1004.42 418.68 1002.44 423.24 996.258 426.34L995.138 424.7C1000.38 422.1 1002.36 418.48 1002.36 413.68V413.32ZM995.958 413.32H1003.46V415H995.958V413.32ZM1015.08 431.98L1013.64 431.36C1015.34 428.48 1016.16 425.1 1016.16 421.76C1016.16 418.42 1015.34 415.04 1013.64 412.16L1015.08 411.52C1016.94 414.56 1018.04 417.8 1018.04 421.76C1018.04 425.72 1016.94 428.96 1015.08 431.98Z" fill="#878787"/>
<path d="M876.26 602.725C875.6 602.725 875.105 602.2 875.105 601.51C875.105 600.79 875.6 600.28 876.26 600.28C876.89 600.28 877.415 600.79 877.415 601.51C877.415 602.2 876.89 602.725 876.26 602.725ZM891.413 594.535H892.898V602.785H891.413V594.535ZM889.403 597.985H891.818V599.275H889.403V597.985ZM888.353 594.79H889.823V602.305H888.353V594.79ZM888.338 602.95C891.158 602.95 892.973 603.955 892.973 605.605C892.973 607.24 891.158 608.23 888.338 608.23C885.503 608.23 883.703 607.24 883.703 605.605C883.703 603.955 885.503 602.95 888.338 602.95ZM888.338 604.195C886.418 604.195 885.248 604.69 885.248 605.605C885.248 606.49 886.418 607 888.338 607C890.243 607 891.398 606.49 891.398 605.605C891.398 604.69 890.243 604.195 888.338 604.195ZM881.903 595.615H883.478V600.85H881.903V595.615ZM881.903 600.415H882.803C884.393 600.415 885.833 600.34 887.498 599.995L887.663 601.285C885.938 601.63 884.468 601.705 882.803 601.705H881.903V600.415ZM904.222 594.535H905.797V602.53H904.222V594.535ZM905.362 597.88H907.732V599.185H905.362V597.88ZM900.367 595.36H902.017C902.017 598.915 899.677 601.39 895.642 602.455L894.997 601.24C898.477 600.325 900.367 598.435 900.367 596.11V595.36ZM895.642 595.36H901.282V596.62H895.642V595.36ZM896.782 603.145H905.797V608.245H904.222V604.405H896.782V603.145ZM911.826 599.155H913.386V601.705H911.826V599.155ZM916.761 599.155H918.321V601.705H916.761V599.155ZM908.886 601.195H921.276V602.44H908.886V601.195ZM915.066 603.325C918.006 603.325 919.791 604.21 919.791 605.77C919.791 607.345 918.006 608.23 915.066 608.23C912.111 608.23 910.341 607.345 910.341 605.77C910.341 604.21 912.111 603.325 915.066 603.325ZM915.066 604.525C913.056 604.525 911.931 604.96 911.931 605.77C911.931 606.595 913.056 607.03 915.066 607.03C917.076 607.03 918.201 606.595 918.201 605.77C918.201 604.96 917.076 604.525 915.066 604.525ZM915.081 594.76C918.081 594.76 919.971 595.735 919.971 597.355C919.971 598.975 918.081 599.92 915.081 599.92C912.081 599.92 910.206 598.975 910.206 597.355C910.206 595.735 912.081 594.76 915.081 594.76ZM915.081 595.975C913.041 595.975 911.826 596.455 911.826 597.355C911.826 598.24 913.041 598.72 915.081 598.72C917.136 598.72 918.351 598.24 918.351 597.355C918.351 596.455 917.136 595.975 915.081 595.975ZM928.07 594.985H929.45V595.69C929.45 598.315 927.035 600.355 923.87 600.865L923.255 599.59C926.03 599.2 928.07 597.49 928.07 595.69V594.985ZM928.355 594.985H929.72V595.69C929.72 597.46 931.775 599.2 934.55 599.59L933.935 600.865C930.77 600.355 928.355 598.3 928.355 595.69V594.985ZM928.07 603.115H929.63V608.245H928.07V603.115ZM922.7 602.125H935.09V603.415H922.7V602.125ZM876.26 624.725C875.6 624.725 875.105 624.2 875.105 623.51C875.105 622.79 875.6 622.28 876.26 622.28C876.89 622.28 877.415 622.79 877.415 623.51C877.415 624.2 876.89 624.725 876.26 624.725ZM882.818 622.805H892.328V624.08H882.818V622.805ZM881.303 627.305H893.723V628.61H881.303V627.305ZM886.703 623.375H888.263V627.77H886.703V623.375ZM882.818 617.555H892.208V618.83H884.378V623.36H882.818V617.555ZM898.582 617.66H899.872V619.91C899.872 623.225 898.387 626.27 895.927 627.47L894.982 626.165C897.172 625.175 898.582 622.535 898.582 619.91V617.66ZM898.882 617.66H900.157V619.91C900.157 622.43 901.552 624.95 903.712 625.91L902.782 627.17C900.367 626.03 898.882 623.105 898.882 619.91V617.66ZM904.807 616.52H906.382V630.26H904.807V616.52ZM919.161 616.535H920.661V630.245H919.161V616.535ZM917.226 621.935H919.701V623.24H917.226V621.935ZM916.191 616.79H917.661V629.585H916.191V616.79ZM911.556 618.665H912.756V620.075C912.756 623.405 911.826 626.21 909.651 627.515L908.691 626.315C910.701 625.175 911.556 622.805 911.556 620.075V618.665ZM911.856 618.665H913.071V620.075C913.071 622.55 913.941 624.8 915.921 625.82L915.006 627.02C912.816 625.835 911.856 623.165 911.856 620.075V618.665ZM909.066 618.05H915.366V619.325H909.066V618.05ZM932.405 616.52H933.98V630.26H932.405V616.52ZM926.675 617.54C928.73 617.54 930.215 619.415 930.215 622.37C930.215 625.325 928.73 627.215 926.675 627.215C924.635 627.215 923.15 625.325 923.15 622.37C923.15 619.415 924.635 617.54 926.675 617.54ZM926.675 618.965C925.475 618.965 924.65 620.24 924.65 622.37C924.65 624.515 925.475 625.805 926.675 625.805C927.875 625.805 928.7 624.515 928.7 622.37C928.7 620.24 927.875 618.965 926.675 618.965ZM939.424 621.155H940.984V623.705H939.424V621.155ZM944.359 621.155H945.919V623.705H944.359V621.155ZM936.484 623.195H948.874V624.44H936.484V623.195ZM942.664 625.325C945.604 625.325 947.389 626.21 947.389 627.77C947.389 629.345 945.604 630.23 942.664 630.23C939.709 630.23 937.939 629.345 937.939 627.77C937.939 626.21 939.709 625.325 942.664 625.325ZM942.664 626.525C940.654 626.525 939.529 626.96 939.529 627.77C939.529 628.595 940.654 629.03 942.664 629.03C944.674 629.03 945.799 628.595 945.799 627.77C945.799 626.96 944.674 626.525 942.664 626.525ZM942.679 616.76C945.679 616.76 947.569 617.735 947.569 619.355C947.569 620.975 945.679 621.92 942.679 621.92C939.679 621.92 937.804 620.975 937.804 619.355C937.804 617.735 939.679 616.76 942.679 616.76ZM942.679 617.975C940.639 617.975 939.424 618.455 939.424 619.355C939.424 620.24 940.639 620.72 942.679 620.72C944.734 620.72 945.949 620.24 945.949 619.355C945.949 618.455 944.734 617.975 942.679 617.975ZM955.667 616.985H957.047V617.69C957.047 620.315 954.632 622.355 951.467 622.865L950.852 621.59C953.627 621.2 955.667 619.49 955.667 617.69V616.985ZM955.952 616.985H957.317V617.69C957.317 619.46 959.372 621.2 962.147 621.59L961.532 622.865C958.367 622.355 955.952 620.3 955.952 617.69V616.985ZM955.667 625.115H957.227V630.245H955.667V625.115ZM950.297 624.125H962.687V625.415H950.297V624.125ZM876.26 646.725C875.6 646.725 875.105 646.2 875.105 645.51C875.105 644.79 875.6 644.28 876.26 644.28C876.89 644.28 877.415 644.79 877.415 645.51C877.415 646.2 876.89 646.725 876.26 646.725ZM884.783 640.59H886.043V642.51C886.043 645.525 884.498 648.51 882.143 649.635L881.243 648.39C883.358 647.415 884.783 644.85 884.783 642.51V640.59ZM885.113 640.59H886.358V642.51C886.358 644.775 887.768 647.145 889.913 648.045L889.043 649.29C886.658 648.225 885.113 645.45 885.113 642.51V640.59ZM881.738 639.9H889.403V641.205H881.738V639.9ZM891.008 638.535H892.583V652.245H891.008V638.535ZM904.162 638.535H905.722V652.245H904.162V638.535ZM905.362 644.04H907.852V645.345H905.362V644.04ZM895.027 640.65H903.067V641.91H895.027V640.65ZM899.092 642.9C901.042 642.9 902.482 644.22 902.482 646.095C902.482 647.985 901.042 649.305 899.092 649.305C897.127 649.305 895.687 647.985 895.687 646.095C895.687 644.22 897.127 642.9 899.092 642.9ZM899.092 644.19C897.982 644.19 897.187 644.94 897.187 646.095C897.187 647.25 897.982 648.015 899.092 648.015C900.187 648.015 900.982 647.25 900.982 646.095C900.982 644.94 900.187 644.19 899.092 644.19ZM898.282 638.73H899.857V641.175H898.282V638.73ZM914.271 638.985H915.651V639.69C915.651 642.315 913.236 644.355 910.071 644.865L909.456 643.59C912.231 643.2 914.271 641.49 914.271 639.69V638.985ZM914.556 638.985H915.921V639.69C915.921 641.46 917.976 643.2 920.751 643.59L920.136 644.865C916.971 644.355 914.556 642.3 914.556 639.69V638.985ZM914.271 647.115H915.831V652.245H914.271V647.115ZM908.901 646.125H921.291V647.415H908.901V646.125ZM931.469 646.035H933.014V648.06H931.469V646.035ZM926.054 645.225H938.444V646.47H926.054V645.225ZM931.469 638.535H933.029V640.41H931.469V638.535ZM931.379 640.56H932.759V640.8C932.759 642.96 930.479 644.34 927.164 644.625L926.684 643.425C929.624 643.215 931.379 642.135 931.379 640.8V640.56ZM931.739 640.56H933.119V640.8C933.119 642.135 934.874 643.215 937.799 643.425L937.334 644.625C934.004 644.34 931.739 642.96 931.739 640.8V640.56ZM927.284 639.825H937.214V641.055H927.284V639.825ZM932.234 647.64C935.204 647.64 936.959 648.45 936.959 649.935C936.959 651.42 935.204 652.23 932.234 652.23C929.264 652.23 927.509 651.42 927.509 649.935C927.509 648.45 929.264 647.64 932.234 647.64ZM932.234 648.81C930.209 648.81 929.099 649.185 929.099 649.935C929.099 650.67 930.209 651.06 932.234 651.06C934.259 651.06 935.369 650.67 935.369 649.935C935.369 649.185 934.259 648.81 932.234 648.81ZM947.158 642.21H950.503V643.485H947.158V642.21ZM949.648 638.55H951.223V648.57H949.648V638.55ZM942.343 650.7H951.568V651.975H942.343V650.7ZM942.343 647.7H943.903V651.405H942.343V647.7ZM943.213 640.29H944.488V641.28C944.488 643.815 943.093 646.065 940.648 646.935L939.853 645.675C941.983 644.94 943.213 643.14 943.213 641.28V640.29ZM943.528 640.29H944.788V641.28C944.788 642.975 945.958 644.685 948.013 645.405L947.233 646.635C944.863 645.81 943.528 643.65 943.528 641.28V640.29ZM940.303 639.57H947.653V640.83H940.303V639.57ZM876.26 668.725C875.6 668.725 875.105 668.2 875.105 667.51C875.105 666.79 875.6 666.28 876.26 666.28C876.89 666.28 877.415 666.79 877.415 667.51C877.415 668.2 876.89 668.725 876.26 668.725ZM887.453 662.41H891.578V663.67H887.453V662.41ZM887.453 665.47H891.578V666.73H887.453V665.47ZM885.053 661.285C887.078 661.285 888.623 662.65 888.623 664.57C888.623 666.49 887.078 667.84 885.053 667.84C883.013 667.84 881.483 666.49 881.483 664.57C881.483 662.65 883.013 661.285 885.053 661.285ZM885.053 662.62C883.868 662.62 882.983 663.4 882.983 664.57C882.983 665.755 883.868 666.535 885.053 666.535C886.238 666.535 887.123 665.755 887.123 664.57C887.123 663.4 886.238 662.62 885.053 662.62ZM891.083 660.535H892.658V668.365H891.083V660.535ZM883.658 669.025H892.658V674.08H883.658V669.025ZM891.113 670.27H885.203V672.82H891.113V670.27ZM895.087 667.675H907.507V668.935H895.087V667.675ZM900.637 668.335H902.197V671.365H900.637V668.335ZM896.602 672.7H906.127V673.975H896.602V672.7ZM896.602 670.225H898.162V673.21H896.602V670.225ZM896.707 660.97H898.252V662.56H904.327V660.97H905.887V666.52H896.707V660.97ZM898.252 663.76V665.275H904.327V663.76H898.252ZM922.455 660.535H923.955V674.245H922.455V660.535ZM917.67 665.35H920.145V666.64H917.67V665.35ZM919.695 660.805H921.165V673.57H919.695V660.805ZM914.895 662.71H916.095V664.3C916.095 667.33 915.075 670.27 912.99 671.59L912.045 670.42C913.995 669.22 914.895 666.745 914.895 664.3V662.71ZM915.24 662.71H916.425V664.3C916.425 666.64 917.295 668.98 919.215 670.105L918.285 671.26C916.2 670.015 915.24 667.24 915.24 664.3V662.71ZM912.48 662.035H918.675V663.31H912.48V662.035ZM935.849 660.535H937.409V674.245H935.849V660.535ZM932.894 665.92H936.584V667.21H932.894V665.92ZM931.409 661.99H932.954C932.954 666.01 931.469 669.43 926.834 671.755L925.994 670.525C929.924 668.575 931.409 665.86 931.409 662.26V661.99ZM926.609 661.99H932.234V663.25H926.609V661.99Z" fill="#606060"/>
<path d="M532.375 249.336C528.439 249.336 525.799 247.176 525.799 241.44V231.336H528.583V241.608C528.583 245.592 530.167 246.888 532.375 246.888C534.583 246.888 536.239 245.592 536.239 241.608V231.336H538.927V241.44C538.927 247.176 536.287 249.336 532.375 249.336ZM543.472 249V231.336H553.96V233.688H546.28V239.064H552.808V241.416H546.28V249H543.472ZM565.658 242.808C570.362 242.808 573.362 244.344 573.362 246.912C573.362 249.432 570.362 250.968 565.658 250.968C560.978 250.968 557.978 249.432 557.978 246.912C557.978 244.344 560.978 242.808 565.658 242.808ZM565.658 244.728C562.442 244.728 560.474 245.52 560.474 246.912C560.474 248.256 562.442 249.048 565.658 249.048C568.898 249.048 570.866 248.256 570.866 246.912C570.866 245.52 568.898 244.728 565.658 244.728ZM558.17 230.112H572.186V232.104H558.17V230.112ZM555.89 239.088H575.642V241.08H555.89V239.088ZM563.642 235.032H566.138V239.616H563.642V235.032ZM570.722 230.112H573.218V231.936C573.218 233.688 573.218 235.512 572.618 237.768L570.122 237.504C570.722 235.248 570.722 233.64 570.722 231.936V230.112ZM589.728 234.576H594.312V236.64H589.728V234.576ZM593.592 229.056H596.112V242.112H593.592V229.056ZM588.792 242.688C593.376 242.688 596.184 244.248 596.184 246.84C596.184 249.48 593.376 250.992 588.792 250.992C584.208 250.992 581.4 249.48 581.4 246.84C581.4 244.248 584.208 242.688 588.792 242.688ZM588.792 244.632C585.696 244.632 583.896 245.4 583.896 246.84C583.896 248.28 585.696 249.048 588.792 249.048C591.912 249.048 593.688 248.28 593.688 246.84C593.688 245.4 591.912 244.632 588.792 244.632ZM583.296 231.264H585.336V232.872C585.336 236.976 583.104 240.6 579.216 241.992L577.92 240C581.352 238.8 583.296 235.872 583.296 232.872V231.264ZM583.8 231.264H585.816V232.848C585.816 235.584 587.688 238.296 590.976 239.424L589.728 241.416C585.936 240.096 583.8 236.64 583.8 232.848V231.264ZM578.64 230.544H590.4V232.56H578.64V230.544Z" fill="black"/>
<path d="M480.768 281.98C478.888 278.96 477.788 275.72 477.788 271.76C477.788 267.8 478.888 264.56 480.768 261.52L482.188 262.16C480.488 265.04 479.688 268.42 479.688 271.76C479.688 275.1 480.488 278.48 482.188 281.36L480.768 281.98ZM485.036 263.1H493.616V275.18H485.036V263.1ZM491.576 264.76H487.096V273.5H491.576V264.76ZM497.016 261.36H499.116V279.68H497.016V261.36ZM509.655 267.74H512.955V269.46H509.655V267.74ZM506.035 263.04H507.655V266.34C507.655 270.3 506.255 274.16 503.475 275.86L502.195 274.28C504.775 272.72 506.035 269.46 506.035 266.34V263.04ZM506.475 263.04H508.055V266.26C508.055 269.2 509.175 272.28 511.615 273.82L510.435 275.46C507.695 273.76 506.475 269.98 506.475 266.26V263.04ZM516.075 261.38H518.075V279.66H516.075V261.38ZM512.355 261.72H514.315V278.78H512.355V261.72ZM525.346 272.06H541.906V273.74H525.346V272.06ZM532.526 272.88H534.606V279.66H532.526V272.88ZM527.346 262.1H529.426V264.42H537.786V262.1H539.866V270.08H527.346V262.1ZM529.426 266.08V268.4H537.786V266.08H529.426ZM547.764 272.8H549.904V279.66H547.764V272.8ZM554.064 272.8H556.204V279.66H554.064V272.8ZM543.744 271.68H560.304V273.38H543.744V271.68ZM551.984 262.06C555.844 262.06 558.464 263.62 558.464 266.1C558.464 268.54 555.844 270.12 551.984 270.12C548.144 270.12 545.504 268.54 545.504 266.1C545.504 263.62 548.144 262.06 551.984 262.06ZM551.984 263.74C549.364 263.74 547.644 264.62 547.644 266.1C547.644 267.56 549.364 268.44 551.984 268.44C554.604 268.44 556.324 267.56 556.324 266.1C556.324 264.62 554.604 263.74 551.984 263.74ZM569.342 270.08H571.422V272.78H569.342V270.08ZM562.142 268.88H578.662V270.54H562.142V268.88ZM564.242 261.96H576.542V267.6H564.242V261.96ZM574.482 263.6H566.302V265.96H574.482V263.6ZM564.102 272.04H576.602V276.42H566.202V278.36H564.122V274.92H574.542V273.62H564.102V272.04ZM564.122 277.88H577.122V279.5H564.122V277.88ZM593.521 261.38H595.621V270.8H593.521V261.38ZM583.641 271.62H595.621V276.24H585.721V278.54H583.681V274.74H593.541V273.24H583.641V271.62ZM583.681 277.86H596.161V279.5H583.681V277.86ZM585.221 263.06H586.941V263.9C586.941 267.12 585.001 269.9 581.701 270.92L580.721 269.28C583.601 268.4 585.221 266.2 585.221 263.9V263.06ZM585.661 263.06H587.361V263.9C587.361 266.06 589.001 268.1 591.841 268.92L590.861 270.54C587.581 269.58 585.661 266.96 585.661 263.9V263.06ZM581.281 262.32H591.261V264H581.281V262.32ZM617.031 261.38H619.031V279.66H617.031V261.38ZM610.651 267.8H613.951V269.52H610.651V267.8ZM613.351 261.74H615.311V278.76H613.351V261.74ZM606.951 264.28H608.551V266.4C608.551 270.44 607.191 274.36 604.411 276.12L603.151 274.56C605.751 272.96 606.951 269.66 606.951 266.4V264.28ZM607.411 264.28H608.991V266.4C608.991 269.52 610.151 272.64 612.711 274.14L611.471 275.68C608.691 274.02 607.411 270.32 607.411 266.4V264.28ZM603.731 263.38H611.991V265.08H603.731V263.38ZM634.89 261.38H636.97V279.66H634.89V261.38ZM630.95 268.56H635.87V270.28H630.95V268.56ZM628.97 263.32H631.03C631.03 268.68 629.05 273.24 622.87 276.34L621.75 274.7C626.99 272.1 628.97 268.48 628.97 263.68V263.32ZM622.57 263.32H630.07V265H622.57V263.32ZM641.688 281.98L640.248 281.36C641.948 278.48 642.768 275.1 642.768 271.76C642.768 268.42 641.948 265.04 640.248 262.16L641.688 261.52C643.548 264.56 644.648 267.8 644.648 271.76C644.648 275.72 643.548 278.96 641.688 281.98Z" fill="#878787"/>
<path d="M531.26 13.725C530.6 13.725 530.105 13.2 530.105 12.51C530.105 11.79 530.6 11.28 531.26 11.28C531.89 11.28 532.415 11.79 532.415 12.51C532.415 13.2 531.89 13.725 531.26 13.725ZM542.423 14.13C545.363 14.13 547.238 15.09 547.238 16.695C547.238 18.27 545.363 19.23 542.423 19.23C539.498 19.23 537.623 18.27 537.623 16.695C537.623 15.09 539.498 14.13 542.423 14.13ZM542.423 15.33C540.413 15.33 539.183 15.825 539.183 16.695C539.183 17.535 540.413 18.03 542.423 18.03C544.448 18.03 545.678 17.535 545.678 16.695C545.678 15.825 544.448 15.33 542.423 15.33ZM537.743 6.195H546.503V7.44H537.743V6.195ZM536.318 11.805H548.663V13.05H536.318V11.805ZM541.163 9.27H542.723V12.135H541.163V9.27ZM545.588 6.195H547.148V7.335C547.148 8.43 547.148 9.57 546.773 10.98L545.213 10.815C545.588 9.405 545.588 8.4 545.588 7.335V6.195ZM557.002 8.7H560.572V9.975H557.002V8.7ZM553.852 6.135C555.907 6.135 557.422 7.47 557.422 9.36C557.422 11.25 555.907 12.57 553.852 12.57C551.797 12.57 550.282 11.25 550.282 9.36C550.282 7.47 551.797 6.135 553.852 6.135ZM553.852 7.455C552.652 7.455 551.782 8.205 551.782 9.36C551.782 10.5 552.652 11.265 553.852 11.265C555.052 11.265 555.907 10.5 555.907 9.36C555.907 8.205 555.052 7.455 553.852 7.455ZM559.882 5.535H561.457V12.9H559.882V5.535ZM552.532 13.545H554.092V15.075H559.897V13.545H561.457V19.08H552.532V13.545ZM554.092 16.305V17.82H559.897V16.305H554.092ZM566.826 10.155H568.386V12.705H566.826V10.155ZM571.761 10.155H573.321V12.705H571.761V10.155ZM563.886 12.195H576.276V13.44H563.886V12.195ZM570.066 14.325C573.006 14.325 574.791 15.21 574.791 16.77C574.791 18.345 573.006 19.23 570.066 19.23C567.111 19.23 565.341 18.345 565.341 16.77C565.341 15.21 567.111 14.325 570.066 14.325ZM570.066 15.525C568.056 15.525 566.931 15.96 566.931 16.77C566.931 17.595 568.056 18.03 570.066 18.03C572.076 18.03 573.201 17.595 573.201 16.77C573.201 15.96 572.076 15.525 570.066 15.525ZM570.081 5.76C573.081 5.76 574.971 6.735 574.971 8.355C574.971 9.975 573.081 10.92 570.081 10.92C567.081 10.92 565.206 9.975 565.206 8.355C565.206 6.735 567.081 5.76 570.081 5.76ZM570.081 6.975C568.041 6.975 566.826 7.455 566.826 8.355C566.826 9.24 568.041 9.72 570.081 9.72C572.136 9.72 573.351 9.24 573.351 8.355C573.351 7.455 572.136 6.975 570.081 6.975ZM583.07 5.985H584.45V6.69C584.45 9.315 582.035 11.355 578.87 11.865L578.255 10.59C581.03 10.2 583.07 8.49 583.07 6.69V5.985ZM583.355 5.985H584.72V6.69C584.72 8.46 586.775 10.2 589.55 10.59L588.935 11.865C585.77 11.355 583.355 9.3 583.355 6.69V5.985ZM583.07 14.115H584.63V19.245H583.07V14.115ZM577.7 13.125H590.09V14.415H577.7V13.125ZM531.26 35.725C530.6 35.725 530.105 35.2 530.105 34.51C530.105 33.79 530.6 33.28 531.26 33.28C531.89 33.28 532.415 33.79 532.415 34.51C532.415 35.2 531.89 35.725 531.26 35.725ZM536.303 38.275H548.723V39.565H536.303V38.275ZM541.718 35.08H543.278V38.665H541.718V35.08ZM541.673 29.29H543.008V29.98C543.008 32.83 540.518 35.02 537.473 35.62L536.843 34.375C539.513 33.94 541.673 32.035 541.673 29.98V29.29ZM541.988 29.29H543.308V29.98C543.308 32.035 545.483 33.895 548.198 34.315L547.583 35.56C544.478 34.975 541.988 32.83 541.988 29.98V29.29ZM537.323 28.69H547.658V29.965H537.323V28.69ZM556.672 29.905H560.137V31.165H556.672V29.905ZM556.552 32.74H560.047V34.015H556.552V32.74ZM559.882 27.535H561.457V35.605H559.882V27.535ZM555.517 28.525H557.182C557.182 32.14 554.902 34.585 550.867 35.74L550.237 34.495C553.732 33.535 555.517 31.645 555.517 29.245V28.525ZM550.972 28.525H556.597V29.785H550.972V28.525ZM556.957 35.77C559.732 35.77 561.532 36.79 561.532 38.47C561.532 40.15 559.732 41.185 556.957 41.185C554.182 41.185 552.382 40.15 552.382 38.47C552.382 36.79 554.182 35.77 556.957 35.77ZM556.957 36.985C555.097 36.985 553.927 37.525 553.927 38.47C553.927 39.415 555.097 39.94 556.957 39.94C558.832 39.94 559.987 39.415 559.987 38.47C559.987 37.525 558.832 36.985 556.957 36.985ZM566.826 32.155H568.386V34.705H566.826V32.155ZM571.761 32.155H573.321V34.705H571.761V32.155ZM563.886 34.195H576.276V35.44H563.886V34.195ZM570.066 36.325C573.006 36.325 574.791 37.21 574.791 38.77C574.791 40.345 573.006 41.23 570.066 41.23C567.111 41.23 565.341 40.345 565.341 38.77C565.341 37.21 567.111 36.325 570.066 36.325ZM570.066 37.525C568.056 37.525 566.931 37.96 566.931 38.77C566.931 39.595 568.056 40.03 570.066 40.03C572.076 40.03 573.201 39.595 573.201 38.77C573.201 37.96 572.076 37.525 570.066 37.525ZM570.081 27.76C573.081 27.76 574.971 28.735 574.971 30.355C574.971 31.975 573.081 32.92 570.081 32.92C567.081 32.92 565.206 31.975 565.206 30.355C565.206 28.735 567.081 27.76 570.081 27.76ZM570.081 28.975C568.041 28.975 566.826 29.455 566.826 30.355C566.826 31.24 568.041 31.72 570.081 31.72C572.136 31.72 573.351 31.24 573.351 30.355C573.351 29.455 572.136 28.975 570.081 28.975ZM583.07 27.985H584.45V28.69C584.45 31.315 582.035 33.355 578.87 33.865L578.255 32.59C581.03 32.2 583.07 30.49 583.07 28.69V27.985ZM583.355 27.985H584.72V28.69C584.72 30.46 586.775 32.2 589.55 32.59L588.935 33.865C585.77 33.355 583.355 31.3 583.355 28.69V27.985ZM583.07 36.115H584.63V41.245H583.07V36.115ZM577.7 35.125H590.09V36.415H577.7V35.125ZM531.26 57.725C530.6 57.725 530.105 57.2 530.105 56.51C530.105 55.79 530.6 55.28 531.26 55.28C531.89 55.28 532.415 55.79 532.415 56.51C532.415 57.2 531.89 57.725 531.26 57.725ZM541.688 54.305H544.163V55.595H541.688V54.305ZM538.973 50.78H540.188V53.255C540.188 56.225 539.138 59.12 537.053 60.395L536.093 59.21C538.028 58.04 538.973 55.595 538.973 53.255V50.78ZM539.303 50.78H540.488V53.195C540.488 55.4 541.328 57.71 543.158 58.865L542.273 60.095C540.218 58.82 539.303 55.985 539.303 53.195V50.78ZM546.503 49.535H548.003V63.245H546.503V49.535ZM543.713 49.79H545.183V62.585H543.713V49.79ZM557.347 53.42H560.182V54.71H557.347V53.42ZM552.217 58.52H561.457V63.26H559.882V59.795H552.217V58.52ZM559.882 49.535H561.457V57.86H559.882V49.535ZM553.357 52.01H554.632V52.55C554.632 54.965 553.252 57.02 550.822 57.8L550.072 56.57C552.172 55.91 553.357 54.275 553.357 52.55V52.01ZM553.642 52.01H554.932V52.55C554.932 54.17 556.132 55.715 558.232 56.33L557.512 57.56C555.067 56.825 553.642 54.845 553.642 52.55V52.01ZM550.477 51.095H557.812V52.34H550.477V51.095ZM553.357 49.475H554.932V51.68H553.357V49.475ZM566.826 54.155H568.386V56.705H566.826V54.155ZM571.761 54.155H573.321V56.705H571.761V54.155ZM563.886 56.195H576.276V57.44H563.886V56.195ZM570.066 58.325C573.006 58.325 574.791 59.21 574.791 60.77C574.791 62.345 573.006 63.23 570.066 63.23C567.111 63.23 565.341 62.345 565.341 60.77C565.341 59.21 567.111 58.325 570.066 58.325ZM570.066 59.525C568.056 59.525 566.931 59.96 566.931 60.77C566.931 61.595 568.056 62.03 570.066 62.03C572.076 62.03 573.201 61.595 573.201 60.77C573.201 59.96 572.076 59.525 570.066 59.525ZM570.081 49.76C573.081 49.76 574.971 50.735 574.971 52.355C574.971 53.975 573.081 54.92 570.081 54.92C567.081 54.92 565.206 53.975 565.206 52.355C565.206 50.735 567.081 49.76 570.081 49.76ZM570.081 50.975C568.041 50.975 566.826 51.455 566.826 52.355C566.826 53.24 568.041 53.72 570.081 53.72C572.136 53.72 573.351 53.24 573.351 52.355C573.351 51.455 572.136 50.975 570.081 50.975ZM583.07 49.985H584.45V50.69C584.45 53.315 582.035 55.355 578.87 55.865L578.255 54.59C581.03 54.2 583.07 52.49 583.07 50.69V49.985ZM583.355 49.985H584.72V50.69C584.72 52.46 586.775 54.2 589.55 54.59L588.935 55.865C585.77 55.355 583.355 53.3 583.355 50.69V49.985ZM583.07 58.115H584.63V63.245H583.07V58.115ZM577.7 57.125H590.09V58.415H577.7V57.125Z" fill="#606060"/>
<path d="M1233.62 249V231.336H1236.47L1242.35 241.728L1244.2 245.448H1244.32C1244.15 243.648 1243.94 241.488 1243.94 239.592V231.336H1246.6V249H1243.72L1237.89 238.608L1236.04 234.888H1235.92C1236.04 236.736 1236.28 238.752 1236.28 240.696V249H1233.62ZM1251.24 249V231.336H1261.73V233.688H1254.05V239.064H1260.58V241.416H1254.05V249H1251.24ZM1273.43 242.808C1278.13 242.808 1281.13 244.344 1281.13 246.912C1281.13 249.432 1278.13 250.968 1273.43 250.968C1268.75 250.968 1265.75 249.432 1265.75 246.912C1265.75 244.344 1268.75 242.808 1273.43 242.808ZM1273.43 244.728C1270.21 244.728 1268.24 245.52 1268.24 246.912C1268.24 248.256 1270.21 249.048 1273.43 249.048C1276.67 249.048 1278.64 248.256 1278.64 246.912C1278.64 245.52 1276.67 244.728 1273.43 244.728ZM1265.94 230.112H1279.96V232.104H1265.94V230.112ZM1263.66 239.088H1283.41V241.08H1263.66V239.088ZM1271.41 235.032H1273.91V239.616H1271.41V235.032ZM1278.49 230.112H1280.99V231.936C1280.99 233.688 1280.99 235.512 1280.39 237.768L1277.89 237.504C1278.49 235.248 1278.49 233.64 1278.49 231.936V230.112ZM1297.5 234.576H1302.08V236.64H1297.5V234.576ZM1301.36 229.056H1303.88V242.112H1301.36V229.056ZM1296.56 242.688C1301.15 242.688 1303.95 244.248 1303.95 246.84C1303.95 249.48 1301.15 250.992 1296.56 250.992C1291.98 250.992 1289.17 249.48 1289.17 246.84C1289.17 244.248 1291.98 242.688 1296.56 242.688ZM1296.56 244.632C1293.47 244.632 1291.67 245.4 1291.67 246.84C1291.67 248.28 1293.47 249.048 1296.56 249.048C1299.68 249.048 1301.46 248.28 1301.46 246.84C1301.46 245.4 1299.68 244.632 1296.56 244.632ZM1291.07 231.264H1293.11V232.872C1293.11 236.976 1290.87 240.6 1286.99 241.992L1285.69 240C1289.12 238.8 1291.07 235.872 1291.07 232.872V231.264ZM1291.57 231.264H1293.59V232.848C1293.59 235.584 1295.46 238.296 1298.75 239.424L1297.5 241.416C1293.71 240.096 1291.57 236.64 1291.57 232.848V231.264ZM1286.41 230.544H1298.17V232.56H1286.41V230.544Z" fill="black"/>
<path d="M1167.15 281.98C1165.27 278.96 1164.17 275.72 1164.17 271.76C1164.17 267.8 1165.27 264.56 1167.15 261.52L1168.57 262.16C1166.87 265.04 1166.07 268.42 1166.07 271.76C1166.07 275.1 1166.87 278.48 1168.57 281.36L1167.15 281.98ZM1182.52 261.38H1184.62V279.66H1182.52V261.38ZM1184.14 268.4H1187.46V270.16H1184.14V268.4ZM1171.1 262.88H1173.18V267.54H1177.7V262.88H1179.78V275.34H1171.1V262.88ZM1173.18 269.18V273.64H1177.7V269.18H1173.18ZM1201.8 261.36H1203.9V279.68H1201.8V261.36ZM1194.16 262.72C1196.9 262.72 1198.88 265.22 1198.88 269.16C1198.88 273.1 1196.9 275.62 1194.16 275.62C1191.44 275.62 1189.46 273.1 1189.46 269.16C1189.46 265.22 1191.44 262.72 1194.16 262.72ZM1194.16 264.62C1192.56 264.62 1191.46 266.32 1191.46 269.16C1191.46 272.02 1192.56 273.74 1194.16 273.74C1195.76 273.74 1196.86 272.02 1196.86 269.16C1196.86 266.32 1195.76 264.62 1194.16 264.62ZM1220.29 261.36H1222.37V279.68H1220.29V261.36ZM1217.09 268.2H1220.75V269.9H1217.09V268.2ZM1207.89 273.64H1209.33C1212.45 273.64 1214.77 273.56 1217.43 273.08L1217.63 274.8C1214.89 275.26 1212.51 275.38 1209.33 275.38H1207.89V273.64ZM1207.85 263H1216.05V269.62H1209.97V274.16H1207.89V267.94H1213.99V264.7H1207.85V263ZM1232.73 262.54H1234.55V263.92C1234.55 267.88 1231.23 271.16 1227.11 272.04L1226.19 270.3C1229.81 269.64 1232.73 266.8 1232.73 263.92V262.54ZM1233.13 262.54H1234.95V263.92C1234.95 266.84 1237.87 269.64 1241.49 270.3L1240.57 272.04C1236.45 271.16 1233.13 267.92 1233.13 263.92V262.54ZM1225.65 275.58H1242.21V277.3H1225.65V275.58ZM1244.69 282.02L1244.19 280.72C1245.57 280.14 1246.37 279.12 1246.37 277.92L1246.21 276.08L1247.17 277.58C1246.89 277.88 1246.53 278 1246.15 278C1245.33 278 1244.59 277.46 1244.59 276.52C1244.59 275.6 1245.33 275.04 1246.21 275.04C1247.33 275.04 1247.99 275.96 1247.99 277.5C1247.99 279.62 1246.77 281.24 1244.69 282.02ZM1255.46 263.1H1264.04V275.18H1255.46V263.1ZM1262 264.76H1257.52V273.5H1262V264.76ZM1267.44 261.36H1269.54V279.68H1267.44V261.36ZM1280.08 267.74H1283.38V269.46H1280.08V267.74ZM1276.46 263.04H1278.08V266.34C1278.08 270.3 1276.68 274.16 1273.9 275.86L1272.62 274.28C1275.2 272.72 1276.46 269.46 1276.46 266.34V263.04ZM1276.9 263.04H1278.48V266.26C1278.48 269.2 1279.6 272.28 1282.04 273.82L1280.86 275.46C1278.12 273.76 1276.9 269.98 1276.9 266.26V263.04ZM1286.5 261.38H1288.5V279.66H1286.5V261.38ZM1282.78 261.72H1284.74V278.78H1282.78V261.72ZM1298.48 270.08H1300.56V272.78H1298.48V270.08ZM1291.28 268.88H1307.8V270.54H1291.28V268.88ZM1293.38 261.96H1305.68V267.6H1293.38V261.96ZM1303.62 263.6H1295.44V265.96H1303.62V263.6ZM1293.24 272.04H1305.74V276.42H1295.34V278.36H1293.26V274.92H1303.68V273.62H1293.24V272.04ZM1293.26 277.88H1306.26V279.5H1293.26V277.88ZM1322.66 261.38H1324.76V270.8H1322.66V261.38ZM1312.78 271.62H1324.76V276.24H1314.86V278.54H1312.82V274.74H1322.68V273.24H1312.78V271.62ZM1312.82 277.86H1325.3V279.5H1312.82V277.86ZM1314.36 263.06H1316.08V263.9C1316.08 267.12 1314.14 269.9 1310.84 270.92L1309.86 269.28C1312.74 268.4 1314.36 266.2 1314.36 263.9V263.06ZM1314.8 263.06H1316.5V263.9C1316.5 266.06 1318.14 268.1 1320.98 268.92L1320 270.54C1316.72 269.58 1314.8 266.96 1314.8 263.9V263.06ZM1310.42 262.32H1320.4V264H1310.42V262.32ZM1346.17 261.38H1348.17V279.66H1346.17V261.38ZM1339.79 267.8H1343.09V269.52H1339.79V267.8ZM1342.49 261.74H1344.45V278.76H1342.49V261.74ZM1336.09 264.28H1337.69V266.4C1337.69 270.44 1336.33 274.36 1333.55 276.12L1332.29 274.56C1334.89 272.96 1336.09 269.66 1336.09 266.4V264.28ZM1336.55 264.28H1338.13V266.4C1338.13 269.52 1339.29 272.64 1341.85 274.14L1340.61 275.68C1337.83 274.02 1336.55 270.32 1336.55 266.4V264.28ZM1332.87 263.38H1341.13V265.08H1332.87V263.38ZM1364.02 261.38H1366.1V279.66H1364.02V261.38ZM1360.08 268.56H1365V270.28H1360.08V268.56ZM1358.1 263.32H1360.16C1360.16 268.68 1358.18 273.24 1352 276.34L1350.88 274.7C1356.12 272.1 1358.1 268.48 1358.1 263.68V263.32ZM1351.7 263.32H1359.2V265H1351.7V263.32ZM1370.82 281.98L1369.38 281.36C1371.08 278.48 1371.9 275.1 1371.9 271.76C1371.9 268.42 1371.08 265.04 1369.38 262.16L1370.82 261.52C1372.68 264.56 1373.78 267.8 1373.78 271.76C1373.78 275.72 1372.68 278.96 1370.82 281.98Z" fill="#878787"/>
<path d="M1243.26 35.725C1242.6 35.725 1242.11 35.2 1242.11 34.51C1242.11 33.79 1242.6 33.28 1243.26 33.28C1243.89 33.28 1244.42 33.79 1244.42 34.51C1244.42 35.2 1243.89 35.725 1243.26 35.725ZM1254.48 27.82C1257.48 27.82 1259.37 28.81 1259.37 30.445C1259.37 32.095 1257.48 33.07 1254.48 33.07C1251.5 33.07 1249.61 32.095 1249.61 30.445C1249.61 28.81 1251.5 27.82 1254.48 27.82ZM1254.48 29.05C1252.44 29.05 1251.23 29.53 1251.23 30.445C1251.23 31.345 1252.44 31.84 1254.48 31.84C1256.52 31.84 1257.75 31.345 1257.75 30.445C1257.75 29.53 1256.52 29.05 1254.48 29.05ZM1249.77 36.49H1259.18V41.08H1249.77V36.49ZM1257.65 37.75H1251.32V39.82H1257.65V37.75ZM1248.29 34.075H1260.68V35.32H1248.29V34.075ZM1265.03 32.155H1266.59V34.705H1265.03V32.155ZM1269.96 32.155H1271.52V34.705H1269.96V32.155ZM1262.09 34.195H1274.48V35.44H1262.09V34.195ZM1268.27 36.325C1271.21 36.325 1272.99 37.21 1272.99 38.77C1272.99 40.345 1271.21 41.23 1268.27 41.23C1265.31 41.23 1263.54 40.345 1263.54 38.77C1263.54 37.21 1265.31 36.325 1268.27 36.325ZM1268.27 37.525C1266.26 37.525 1265.13 37.96 1265.13 38.77C1265.13 39.595 1266.26 40.03 1268.27 40.03C1270.28 40.03 1271.4 39.595 1271.4 38.77C1271.4 37.96 1270.28 37.525 1268.27 37.525ZM1268.28 27.76C1271.28 27.76 1273.17 28.735 1273.17 30.355C1273.17 31.975 1271.28 32.92 1268.28 32.92C1265.28 32.92 1263.41 31.975 1263.41 30.355C1263.41 28.735 1265.28 27.76 1268.28 27.76ZM1268.28 28.975C1266.24 28.975 1265.03 29.455 1265.03 30.355C1265.03 31.24 1266.24 31.72 1268.28 31.72C1270.34 31.72 1271.55 31.24 1271.55 30.355C1271.55 29.455 1270.34 28.975 1268.28 28.975ZM1281.27 27.985H1282.65V28.69C1282.65 31.315 1280.24 33.355 1277.07 33.865L1276.46 32.59C1279.23 32.2 1281.27 30.49 1281.27 28.69V27.985ZM1281.56 27.985H1282.92V28.69C1282.92 30.46 1284.98 32.2 1287.75 32.59L1287.14 33.865C1283.97 33.355 1281.56 31.3 1281.56 28.69V27.985ZM1281.27 36.115H1282.83V41.245H1281.27V36.115ZM1275.9 35.125H1288.29V36.415H1275.9V35.125ZM1243.26 57.725C1242.6 57.725 1242.11 57.2 1242.11 56.51C1242.11 55.79 1242.6 55.28 1243.26 55.28C1243.89 55.28 1244.42 55.79 1244.42 56.51C1244.42 57.2 1243.89 57.725 1243.26 57.725ZM1250.99 50.375H1252.22V52.1C1252.22 54.275 1251.15 56.495 1249.04 57.41L1248.21 56.195C1250.06 55.385 1250.99 53.645 1250.99 52.1V50.375ZM1251.26 50.375H1252.5V52.1C1252.5 53.6 1253.4 55.115 1255.17 55.805L1254.33 57.005C1252.29 56.195 1251.26 54.215 1251.26 52.1V50.375ZM1258.41 49.55H1259.9V57.965H1258.41V49.55ZM1256.46 53.06H1258.86V54.335H1256.46V53.06ZM1255.49 49.805H1256.96V57.53H1255.49V49.805ZM1255.34 58.22C1258.17 58.22 1259.97 59.15 1259.97 60.725C1259.97 62.3 1258.17 63.23 1255.34 63.23C1252.47 63.23 1250.7 62.3 1250.7 60.725C1250.7 59.15 1252.47 58.22 1255.34 58.22ZM1255.34 59.42C1253.4 59.42 1252.25 59.885 1252.25 60.725C1252.25 61.565 1253.4 62.03 1255.34 62.03C1257.26 62.03 1258.4 61.565 1258.4 60.725C1258.4 59.885 1257.26 59.42 1255.34 59.42ZM1271.25 49.535H1272.83V57.605H1271.25V49.535ZM1272.23 52.91H1274.7V54.215H1272.23V52.91ZM1263.8 58.175H1272.83V61.085H1265.37V62.39H1263.83V60.095H1271.28V59.24H1263.8V58.175ZM1263.83 62.045H1273.32V63.125H1263.83V62.045ZM1265.46 55.1H1267.04V56.93H1265.46V55.1ZM1262.15 57.38L1261.98 56.27C1264.41 56.27 1267.73 56.255 1270.53 55.88L1270.65 56.855C1267.74 57.365 1264.53 57.38 1262.15 57.38ZM1262.33 50.495H1270.16V51.575H1262.33V50.495ZM1266.24 51.92C1268.22 51.92 1269.5 52.595 1269.5 53.72C1269.5 54.86 1268.22 55.535 1266.24 55.535C1264.25 55.535 1262.99 54.86 1262.99 53.72C1262.99 52.595 1264.25 51.92 1266.24 51.92ZM1266.24 52.925C1265.15 52.925 1264.47 53.21 1264.47 53.72C1264.47 54.23 1265.15 54.53 1266.24 54.53C1267.34 54.53 1268.01 54.23 1268.01 53.72C1268.01 53.21 1267.34 52.925 1266.24 52.925ZM1265.46 49.415H1267.04V51.08H1265.46V49.415ZM1278.83 54.155H1280.39V56.705H1278.83V54.155ZM1283.76 54.155H1285.32V56.705H1283.76V54.155ZM1275.89 56.195H1288.28V57.44H1275.89V56.195ZM1282.07 58.325C1285.01 58.325 1286.79 59.21 1286.79 60.77C1286.79 62.345 1285.01 63.23 1282.07 63.23C1279.11 63.23 1277.34 62.345 1277.34 60.77C1277.34 59.21 1279.11 58.325 1282.07 58.325ZM1282.07 59.525C1280.06 59.525 1278.93 59.96 1278.93 60.77C1278.93 61.595 1280.06 62.03 1282.07 62.03C1284.08 62.03 1285.2 61.595 1285.2 60.77C1285.2 59.96 1284.08 59.525 1282.07 59.525ZM1282.08 49.76C1285.08 49.76 1286.97 50.735 1286.97 52.355C1286.97 53.975 1285.08 54.92 1282.08 54.92C1279.08 54.92 1277.21 53.975 1277.21 52.355C1277.21 50.735 1279.08 49.76 1282.08 49.76ZM1282.08 50.975C1280.04 50.975 1278.83 51.455 1278.83 52.355C1278.83 53.24 1280.04 53.72 1282.08 53.72C1284.14 53.72 1285.35 53.24 1285.35 52.355C1285.35 51.455 1284.14 50.975 1282.08 50.975ZM1295.07 49.985H1296.45V50.69C1296.45 53.315 1294.03 55.355 1290.87 55.865L1290.25 54.59C1293.03 54.2 1295.07 52.49 1295.07 50.69V49.985ZM1295.35 49.985H1296.72V50.69C1296.72 52.46 1298.77 54.2 1301.55 54.59L1300.93 55.865C1297.77 55.355 1295.35 53.3 1295.35 50.69V49.985ZM1295.07 58.115H1296.63V63.245H1295.07V58.115ZM1289.7 57.125H1302.09V58.415H1289.7V57.125Z" fill="#606060"/>
<rect x="1269" y="151" width="147" height="60" fill="#00A6FB"/>
<path d="M1416 151H1466C1471.52 151 1476 155.477 1476 161V361H1416V151Z" fill="#00A6FB"/>
<rect width="15" height="15" transform="matrix(-1 0 0 1 1416 211)" fill="#00A6FB"/>
<rect x="1122" y="151" width="147" height="60" fill="#0582CA"/>
<rect x="915" y="444" width="147" height="60" fill="#0582CA"/>
<path d="M1062 161C1062 155.477 1066.48 151 1072 151H1122V494C1122 499.523 1117.52 504 1112 504H1062V161Z" fill="#0582CA"/>
<rect x="1122" y="211" width="15" height="15" fill="#0582CA"/>
<rect x="1268.84" y="151" width="42.2" height="42.2" transform="rotate(45 1268.84 151)" fill="#0582CA"/>
<rect x="1445.92" y="330.92" width="42.5396" height="42.3132" transform="rotate(45 1445.92 330.92)" fill="#00A6FB"/>
<rect x="1062" y="444" width="15" height="15" transform="rotate(180 1062 444)" fill="#0582CA"/>
<rect x="561" y="151" width="147" height="60" fill="#006494"/>
<rect x="768" y="444" width="147" height="60" fill="#006494"/>
<path d="M708 151H758C763.523 151 768 155.477 768 161V504H718C712.477 504 708 499.523 708 494V151Z" fill="#006494"/>
<rect x="914.84" y="444" width="42.2" height="42.2" transform="rotate(45 914.84 444)" fill="#006494"/>
<rect width="15" height="15" transform="matrix(-1 0 0 1 708 211)" fill="#006494"/>
<rect width="15" height="15" transform="matrix(1 0 0 -1 768 444)" fill="#006494"/>
<rect x="207" y="444" width="147" height="60" fill="#003554"/>
<rect x="414" y="151" width="147" height="60" fill="#003554"/>
<path d="M354 161C354 155.477 358.477 151 364 151H414V494C414 499.523 409.523 504 404 504H354V161Z" fill="#003554"/>
<rect x="414" y="211" width="15" height="15" fill="#003554"/>
<rect x="354" y="444" width="15" height="15" transform="rotate(180 354 444)" fill="#003554"/>
<rect x="560.84" y="151" width="42.2" height="42.2" transform="rotate(45 560.84 151)" fill="#003554"/>
<rect x="414" y="211" width="36" height="36" rx="5" fill="white"/>
<rect x="354" y="444" width="36" height="36" rx="5" transform="rotate(180 354 444)" fill="white"/>
<rect width="36" height="36" rx="5" transform="matrix(-1 0 0 1 708 211)" fill="white"/>
<rect width="36" height="36" rx="5" transform="matrix(1 0 0 -1 768 444)" fill="white"/>
<path d="M0 267C0 265.343 1.34315 264 3 264H57C58.6569 264 60 265.343 60 267V504H10C4.47715 504 0 499.523 0 494V267Z" fill="#051923"/>
<rect x="60" y="444" width="147" height="60" fill="#051923"/>
<rect x="206.84" y="444" width="42.2" height="42.2" transform="rotate(45 206.84 444)" fill="#051923"/>
<rect width="15" height="15" transform="matrix(1 0 0 -1 60 444)" fill="#051923"/>
<rect width="36" height="36" rx="5" transform="matrix(1 0 0 -1 60 444)" fill="white"/>
<rect width="36" height="36" rx="5" transform="matrix(-1 0 0 1 1416 211)" fill="white"/>
<rect x="1122" y="211" width="36" height="36" rx="5" fill="white"/>
<rect x="1062" y="444" width="36" height="36" rx="5" transform="rotate(180 1062 444)" fill="white"/>
<rect x="561" y="151" width="4" height="65" transform="rotate(-180 561 151)" fill="#003554"/>
<rect x="564" y="86" width="10" height="10" transform="rotate(-180 564 86)" fill="#003554"/>
<rect x="911" y="504" width="4" height="65" fill="#006494"/>
<rect x="908" y="569" width="10" height="10" fill="#006494"/>
<rect x="1269" y="151" width="4" height="65" transform="rotate(-180 1269 151)" fill="#0582CA"/>
<rect x="1272" y="86" width="10" height="10" transform="rotate(-180 1272 86)" fill="#0582CA"/>
</svg>
